<svg width="17" height="18" viewBox="0 0 17 18" fill="none" xmlns="http://www.w3.org/2000/svg">
<path d="M11.5161 2.9032H2.70965C2.33552 2.9032 2.03223 3.20649 2.03223 3.58062V12.3871C2.03223 12.7612 2.33552 13.0645 2.70965 13.0645H11.5161C11.8902 13.0645 12.1935 12.7612 12.1935 12.3871V3.58062C12.1935 3.20649 11.8902 2.9032 11.5161 2.9032Z" stroke="#52E6EF" stroke-width="1.35484" stroke-linejoin="round"/>
<path d="M14.2258 4.93542V14.0806C14.2258 14.3501 14.1187 14.6085 13.9282 14.7991C13.7376 14.9897 13.4791 15.0967 13.2096 15.0967H4.06448M2.03223 9.33865L4.62539 7.03339C4.75037 6.92231 4.91201 6.86138 5.07922 6.86231C5.24642 6.86325 5.40737 6.926 5.5311 7.03847L8.80642 10.0161" stroke="#52E6EF" stroke-width="1.35484" stroke-linecap="round" stroke-linejoin="round"/>
<path d="M7.45158 8.66132L9.07231 7.31055C9.18949 7.21297 9.33616 7.15778 9.4886 7.15391C9.64104 7.15003 9.79033 7.19771 9.91231 7.28921L12.1935 9.00003M2.03223 7.30648V10.0162M12.1935 7.30648V10.0162" stroke="#52E6EF" stroke-width="1.35484" stroke-linecap="round" stroke-linejoin="round"/>
</svg>
