<svg width="32" height="32" viewBox="0 0 32 32" fill="none" xmlns="http://www.w3.org/2000/svg">
<path d="M4.29204 5.70798C4.19907 5.61501 4.12531 5.50463 4.075 5.38315C4.02468 5.26167 3.99878 5.13147 3.99878 4.99998C3.99878 4.86849 4.02468 4.73829 4.075 4.61681C4.12531 4.49534 4.19907 4.38496 4.29204 4.29198C4.38502 4.19901 4.4954 4.12525 4.61688 4.07493C4.73835 4.02462 4.86855 3.99872 5.00004 3.99872C5.13153 3.99872 5.26173 4.02462 5.38321 4.07493C5.50469 4.12525 5.61507 4.19901 5.70804 4.29198L16 14.586L26.292 4.29198C26.385 4.19901 26.4954 4.12525 26.6169 4.07493C26.7384 4.02462 26.8686 3.99872 27 3.99872C27.1315 3.99872 27.2617 4.02462 27.3832 4.07493C27.5047 4.12525 27.6151 4.19901 27.708 4.29198C27.801 4.38496 27.8748 4.49534 27.9251 4.61681C27.9754 4.73829 28.0013 4.86849 28.0013 4.99998C28.0013 5.13147 27.9754 5.26167 27.9251 5.38315C27.8748 5.50463 27.801 5.61501 27.708 5.70798L17.414 16L27.708 26.292C27.801 26.385 27.8748 26.4953 27.9251 26.6168C27.9754 26.7383 28.0013 26.8685 28.0013 27C28.0013 27.1315 27.9754 27.2617 27.9251 27.3831C27.8748 27.5046 27.801 27.615 27.708 27.708C27.6151 27.801 27.5047 27.8747 27.3832 27.925C27.2617 27.9753 27.1315 28.0012 27 28.0012C26.8686 28.0012 26.7384 27.9753 26.6169 27.925C26.4954 27.8747 26.385 27.801 26.292 27.708L16 17.414L5.70804 27.708C5.61507 27.801 5.50469 27.8747 5.38321 27.925C5.26173 27.9753 5.13153 28.0012 5.00004 28.0012C4.86855 28.0012 4.73835 27.9753 4.61688 27.925C4.4954 27.8747 4.38502 27.801 4.29204 27.708C4.19907 27.615 4.12531 27.5046 4.075 27.3831C4.02468 27.2617 3.99878 27.1315 3.99878 27C3.99878 26.8685 4.02468 26.7383 4.075 26.6168C4.12531 26.4953 4.19907 26.385 4.29204 26.292L14.586 16L4.29204 5.70798Z" fill="#E9E9E9"/>
</svg>
